<svg width="292" height="267" viewBox="0 0 292 267" fill="none" xmlns="http://www.w3.org/2000/svg">
<path d="M51.1134 266.932C38.3684 266.932 25.6417 267.028 12.8968 266.911C1.25691 266.797 -3.29223 258.554 2.52772 247.853C46.1037 167.749 89.735 87.682 133.422 7.65488C138.947 -2.46484 148.027 -2.57968 153.589 7.48176C166.702 31.1453 179.63 54.9442 192.469 78.7825C197.072 87.3153 196.944 96.0999 192.266 104.691C165.21 154.38 138.137 204.066 111.044 253.736C106.255 262.5 99.0359 266.99 89.3111 266.951C76.5665 266.893 63.8402 266.951 51.0949 266.951L51.1134 266.932Z" fill="#FF394A"/>
<path d="M232.857 266.97C217.587 266.97 202.3 267.049 187.032 266.951C174.564 266.874 170.181 258.71 176.499 247.293C191.471 220.262 206.5 193.251 221.602 166.278C228.233 154.457 237.405 154.436 243.998 166.22C259.082 193.193 274.111 220.184 289.104 247.234C295.531 258.824 291 266.912 278.09 266.97C263.005 267.028 247.921 266.97 232.857 266.97Z" fill="#FF394A"/>
</svg>
