<svg width="1440" height="384" viewBox="0 0 1440 384" fill="none" xmlns="http://www.w3.org/2000/svg">
<g opacity="0.65" clip-path="url(#clip0_192_13834)">
<g clip-path="url(#clip1_192_13834)">
<g clip-path="url(#clip2_192_13834)">
<g filter="url(#filter0_f_192_13834)">
<path d="M927.206 -323.896C1685.3 -357.159 2274.53 -71.1564 1833.75 288.752C1436.93 612.764 564.029 775.414 7.44336 683.531C-568.264 588.481 -766.479 199.678 -159.543 -88.983C189.62 -255.048 521.094 -306.076 927.206 -323.896Z" fill="url(#paint0_radial_192_13834)" fill-opacity="0.1"/>
<path d="M927.206 -323.896C1685.3 -357.159 2274.53 -71.1564 1833.75 288.752C1436.93 612.764 564.029 775.414 7.44336 683.531C-568.264 588.481 -766.479 199.678 -159.543 -88.983C189.62 -255.048 521.094 -306.076 927.206 -323.896Z" fill="url(#paint1_linear_192_13834)" fill-opacity="0.2"/>
<path d="M927.206 -323.896C1685.3 -357.159 2274.53 -71.1564 1833.75 288.752C1436.93 612.764 564.029 775.414 7.44336 683.531C-568.264 588.481 -766.479 199.678 -159.543 -88.983C189.62 -255.048 521.094 -306.076 927.206 -323.896Z" fill="url(#paint2_radial_192_13834)" fill-opacity="0.1"/>
</g>
<g clip-path="url(#clip3_192_13834)">
<path d="M1032 383.946C1022.8 383.946 1013.61 384.014 1004.4 383.932C995.996 383.852 992.71 378.095 996.913 370.622C1028.38 314.677 1059.89 258.759 1091.44 202.869C1095.43 195.801 1101.99 195.72 1106 202.747C1115.47 219.274 1124.81 235.895 1134.08 252.543C1137.4 258.503 1137.31 264.638 1133.93 270.638C1114.39 305.34 1094.84 340.042 1075.28 374.73C1071.82 380.851 1066.61 383.986 1059.58 383.959C1050.38 383.919 1041.19 383.959 1031.99 383.959L1032 383.946Z" fill="white"/>
<path d="M1163.25 383.973C1152.22 383.973 1141.18 384.027 1130.15 383.959C1121.15 383.905 1117.98 378.203 1122.55 370.23C1133.36 351.352 1144.21 332.488 1155.12 313.65C1159.91 305.394 1166.53 305.38 1171.29 313.61C1182.19 332.447 1193.04 351.298 1203.86 370.189C1208.51 378.284 1205.23 383.932 1195.91 383.973C1185.02 384.014 1174.13 383.973 1163.25 383.973Z" fill="white"/>
<path d="M1365.01 9.47382V182.484C1365.01 186.25 1362 189.307 1358.3 189.307H1301.89C1298.18 189.307 1295.17 186.25 1295.17 182.484V78.7787C1295.17 75.0129 1292.17 71.9563 1288.46 71.9563H1249.51C1245.8 71.9563 1242.8 68.8997 1242.8 65.1335V7.82273C1242.8 4.05658 1245.8 1 1249.51 1H1356.67C1361.28 1 1365.01 4.79343 1365.01 9.47382Z" fill="#FB2C36"/>
<path d="M1365.08 319.648V376.959C1365.08 380.725 1362.07 383.782 1358.36 383.782H1285.1C1238.78 383.782 1201.23 345.629 1201.23 298.566V203.662C1201.23 199.896 1198.22 196.839 1194.51 196.839H1156.06C1152.35 196.839 1149.35 193.783 1149.35 190.017V132.706C1149.35 128.94 1152.35 125.883 1156.06 125.883H1194.51C1198.22 125.883 1201.23 122.827 1201.23 119.06V104.051C1201.23 100.284 1204.24 97.2277 1207.94 97.2277H1264.35C1268.06 97.2277 1271.07 100.284 1271.07 104.051V296.369C1271.07 305.457 1278.32 312.825 1287.26 312.825H1358.36C1362.07 312.825 1365.08 315.882 1365.08 319.648Z" fill="white"/>
</g>
</g>
</g>
</g>
<defs>
<filter id="filter0_f_192_13834" x="-1363.26" y="-1159.86" width="4181.64" height="2702.18" filterUnits="userSpaceOnUse" color-interpolation-filters="sRGB">
<feFlood flood-opacity="0" result="BackgroundImageFix"/>
<feBlend mode="normal" in="SourceGraphic" in2="BackgroundImageFix" result="shape"/>
<feGaussianBlur stdDeviation="416.666" result="effect1_foregroundBlur_192_13834"/>
</filter>
<radialGradient id="paint0_radial_192_13834" cx="0" cy="0" r="1" gradientUnits="userSpaceOnUse" gradientTransform="translate(-340.815 927.864) rotate(-46.796) scale(1116.56 1718.35)">
<stop offset="0.0350108" stop-color="#F2B6BB"/>
<stop offset="1" stop-color="#B50012"/>
</radialGradient>
<linearGradient id="paint1_linear_192_13834" x1="5528.93" y1="593.931" x2="-466.479" y2="-795.295" gradientUnits="userSpaceOnUse">
<stop offset="0.48522" stop-color="#E36EB4"/>
<stop offset="0.976907" stop-color="#F11D21"/>
</linearGradient>
<radialGradient id="paint2_radial_192_13834" cx="0" cy="0" r="1" gradientUnits="userSpaceOnUse" gradientTransform="translate(-713.879 51.2968) rotate(0.364919) scale(1972.05 851.352)">
<stop offset="0.0127809" stop-color="#D88E8E"/>
<stop offset="1" stop-color="#C36666" stop-opacity="0"/>
</radialGradient>
<clipPath id="clip0_192_13834">
<rect width="2400" height="2703.33" fill="white" transform="translate(-480 -1161)"/>
</clipPath>
<clipPath id="clip1_192_13834">
<rect width="2400" height="2703.33" fill="white" transform="translate(-480 -1161)"/>
</clipPath>
<clipPath id="clip2_192_13834">
<rect width="2400" height="2703.33" fill="white" transform="translate(-479.998 -1161)"/>
</clipPath>
<clipPath id="clip3_192_13834">
<rect width="370.158" height="383" fill="white" transform="translate(994.921 1)"/>
</clipPath>
</defs>
</svg>
