<svg width="30" height="32" viewBox="0 0 30 32" fill="none" xmlns="http://www.w3.org/2000/svg">
<g clip-path="url(#clip0_383_6787)">
<path d="M3.00521 31.9955C2.25928 31.9955 1.51442 32.0011 0.76849 31.9943C0.0872356 31.9876 -0.179014 31.5066 0.161613 30.8822C2.71201 26.208 5.26564 21.536 7.82251 16.8663C8.14588 16.2758 8.6773 16.2691 9.00283 16.8562C9.77035 18.237 10.527 19.6257 11.2784 21.0167C11.5478 21.5146 11.5403 22.0272 11.2665 22.5285C9.68303 25.4279 8.09847 28.3272 6.5128 31.2255C6.23254 31.7369 5.81 31.9989 5.24083 31.9966C4.49492 31.9932 3.75008 31.9966 3.00413 31.9966L3.00521 31.9955Z" fill="#FF394A"/>
<path d="M13.6422 31.9977C12.7485 31.9977 11.8538 32.0023 10.9602 31.9966C10.2305 31.9921 9.97393 31.5157 10.3437 30.8495C11.22 29.2722 12.0996 27.6961 12.9835 26.1222C13.3716 25.4324 13.9084 25.4312 14.2943 26.1188C15.1771 27.6927 16.0567 29.2677 16.9342 30.8461C17.3104 31.5224 17.0452 31.9943 16.2896 31.9977C15.4067 32.0011 14.5239 31.9977 13.6422 31.9977Z" fill="#FF394A"/>
<path d="M29.9945 0.707995V15.1631C29.9945 15.4778 29.7507 15.7332 29.4503 15.7332H24.8786C24.5782 15.7332 24.3344 15.4778 24.3344 15.1631V6.49848C24.3344 6.18384 24.0906 5.92847 23.7902 5.92847H20.6336C20.3332 5.92847 20.0894 5.67309 20.0894 5.35841V0.570045C20.0894 0.25538 20.3332 0 20.6336 0H29.3186C29.6919 0 29.9945 0.316944 29.9945 0.707995Z" fill="#FF394A"/>
<path d="M29.9999 26.6233V31.4117C29.9999 31.7264 29.7561 31.9818 29.4557 31.9818H23.518C19.7638 31.9818 16.7204 28.7941 16.7204 24.8619V16.9326C16.7204 16.6179 16.4766 16.3625 16.1762 16.3625H13.0599C12.7594 16.3625 12.5156 16.1072 12.5156 15.7925V11.0041C12.5156 10.6895 12.7594 10.4341 13.0599 10.4341H16.1762C16.4766 10.4341 16.7204 10.1787 16.7204 9.86406V8.60997C16.7204 8.2953 16.9642 8.03992 17.2647 8.03992H21.8363C22.1367 8.03992 22.3805 8.2953 22.3805 8.60997V24.6784C22.3805 25.4377 22.9683 26.0533 23.6932 26.0533H29.4557C29.7561 26.0533 29.9999 26.3087 29.9999 26.6233Z" fill="#FF394A"/>
</g>
<defs>
<clipPath id="clip0_383_6787">
<rect width="30" height="32" fill="white"/>
</clipPath>
</defs>
</svg>
