<svg xmlns:xlink="http://www.w3.org/1999/xlink" xmlns="http://www.w3.org/2000/svg" width="24" height="24" viewBox="0 0 24 24" fill="none" stroke="currentColor" stroke-width="2" stroke-linecap="round" stroke-linejoin="round" class="lucide lucide-building2 w-6 h-6 text-red-600"><path d="M6 22V4a2 2 0 0 1 2-2h8a2 2 0 0 1 2 2v18Z" stroke="#E11D48" fill="none" stroke-width="2px"></path><path d="M6 12H4a2 2 0 0 0-2 2v6a2 2 0 0 0 2 2h2" stroke="#E11D48" fill="none" stroke-width="2px"></path><path d="M18 9h2a2 2 0 0 1 2 2v9a2 2 0 0 1-2 2h-2" stroke="#E11D48" fill="none" stroke-width="2px"></path><path d="M10 6h4" stroke="#E11D48" fill="none" stroke-width="2px"></path><path d="M10 10h4" stroke="#E11D48" fill="none" stroke-width="2px"></path><path d="M10 14h4" stroke="#E11D48" fill="none" stroke-width="2px"></path><path d="M10 18h4" stroke="#E11D48" fill="none" stroke-width="2px"></path></svg>