<svg xmlns:xlink="http://www.w3.org/1999/xlink" xmlns="http://www.w3.org/2000/svg" width="24" height="24" viewBox="0 0 24 24" fill="none" stroke="currentColor" stroke-width="2" stroke-linecap="round" stroke-linejoin="round" class="lucide lucide-rocket w-6 h-6" data-lov-id="src/components/WhoShouldApply.tsx:12:12" data-lov-name="Rocket" data-component-path="src/components/WhoShouldApply.tsx" data-component-line="12" data-component-file="WhoShouldApply.tsx" data-component-name="Rocket" data-component-content="%7B%22className%22%3A%22w-6%20h-6%22%7D"><path d="M4.5 16.5c-1.5 1.26-2 5-2 5s3.74-.5 5-2c.71-.84.7-2.13-.09-2.91a2.18 2.18 0 0 0-2.91-.09z" stroke="#FFFFFF" fill="none" stroke-width="2px"></path><path d="m12 15-3-3a22 22 0 0 1 2-3.95A12.88 12.88 0 0 1 22 2c0 2.72-.78 7.5-6 11a22.35 22.35 0 0 1-4 2z" stroke="#FFFFFF" fill="none" stroke-width="2px"></path><path d="M9 12H4s.55-3.03 2-4c1.62-1.08 5 0 5 0" stroke="#FFFFFF" fill="none" stroke-width="2px"></path><path d="M12 15v5s3.03-.55 4-2c1.08-1.62 0-5 0-5" stroke="#FFFFFF" fill="none" stroke-width="2px"></path></svg>